<?xml version="1.0"?><svg version="1.2" baseProfile="tiny-ps" viewBox="0 0 300 300" xmlns="http://www.w3.org/2000/svg" xmlns:xlink="http://www.w3.org/1999/xlink"><title> Your Brand/Organization</title><g><g fill="#2d3c3c" transform="matrix(.1 0 0 -.1 0 300)"><path d="m1053 2430-32-19-15-28c-8-16-17-49-21-75l-7-46 16-54 16-55 22-28 22-28-66-61c-83-78-119-126-163-218l-35-74-16-74-16-75 5-215 4-215 22-70c13-38 37-97 54-130l32-60 90-91 90-90 95-46 95-46 72-16 72-16h226l85 20 85 21 75 40c89 49 158 103 223 178l49 56 38 80 38 80 16 72 16 72v386l-15 70-15 70-46 95-47 95-82 80-82 81 31 54 30 54v71l1 70-18 33-18 33-32 19-32 20h-83l-38-16c-22-9-56-30-76-46l-37-29-52 15-53 16h-138l-60-15-59-16-32 27c-18 15-51 35-75 45l-44 19h-83l-32-20zm148-36c17-8 47-30 68-49l37-34 63 19 63 20h136l63-20 63-19 39 35c22 20 54 42 73 50l33 14h38l38-1-36-19c-43-23-86-71-95-106l-6-24 45-49 45-48 31-61c17-34 42-89 55-124 14-35 39-97 56-138l32-75 5-71 6-71-18-54-18-54-61-61-61-60-55-27c-30-15-93-36-139-48l-84-21-141 5-141 4-58 17c-32 9-83 28-113 42l-54 25-53 49-52 48-25 48-25 49v85l1 85 58 145c73 182 109 250 163 310l43 48v16c0 10-11 34-25 54l-25 37-42 22-43 22 43 1h43l30-16zm-57-68c43-40 45-55 10-87-15-13-39-41-55-62l-28-39-20 33-20 33-7 42-6 42 7 24c4 12 12 29 17 36l10 12h57l35-34zm820 12 16-22v-31c0-39-15-91-35-122l-16-24-45 61c-25 33-50 62-55 65l-9 6 15 29 15 29 28 15c15 9 37 15 49 16h22l15-22zm-970-385c-9-21-30-72-47-113l-30-75-5-71-4-72 17-55 17-54 40-54 41-53-13-31c-7-16-21-59-31-95l-18-65v-74l-1-73 16-62c20-79 67-166 122-227 24-27 41-49 37-49s-36 20-71 45l-64 46-50 62-51 62-35 72-35 72-14 68-15 68v370l15 70 15 70 39 81 40 80 41 47c23 26 46 47 51 47h9l-16-37zm1056-10 42-48 35-69 34-68 20-76 19-75v-382l-15-70-15-70-34-70c-19-38-56-97-83-129l-48-59-63-49c-35-26-68-48-73-48-6 0 9 22 33 49 55 60 103 149 123 226l15 59-1 76v75l-18 65c-10 36-24 79-31 95l-13 31 42 54 41 55 15 49 15 50v111l-14 50c-8 28-30 87-49 133l-36 82h9c4 0 27-21 50-47zm-856-633c29-11 85-27 122-35l69-15h240l80 19c89 22 163 51 206 82l28 20 16-30c8-17 22-56 30-88l15-57v-63c0-34-5-86-11-115l-11-53-36-69-36-70-51-51-50-51-56-32-55-31-59-16-59-15h-76c-94 1-144 12-226 52l-64 31-58 58-58 57-33 62c-19 34-40 85-47 114l-14 51v141l15 57c8 32 22 71 30 87l15 30 40-25c22-14 64-34 94-45zm0 811c-59-36-104-117-104-186v-32l23-33c12-18 35-43 50-54l28-21 65 1h64l-16-17-16-18 5-16c4-8 11-15 16-15 15 0 70 83 86 131l15 42v122l-19 35-18 35-33 23-33 22h-82l-31-19zm136-48 31-28 9-39 9-40-6-28c-3-16-10-31-14-34l-9-5v25c0 29-3 31-29 14l-18-11-17 6c-9 4-19 14-22 22l-6 16 17 19 18 20h-61l-31-26-31-26v-35c0-19 5-43 10-53l10-20-15 6c-9 4-23 20-31 37l-16 30 6 41 7 41 18 29c10 15 32 37 47 47l29 19h65l30-27zm332 47-33-21-21-46-20-46 4-66 5-66 23-45c28-54 61-100 72-100 5 0 11 7 15 15l5 16-16 18-16 17h64l65-1 28 21c15 11 38 36 51 54l22 33v32c0 18-7 52-15 76l-16 44-27 28c-15 16-39 35-54 43l-27 14h-76l-33-20zm134-39 31-19 22-44 21-44v-30c0-33-19-76-37-81l-12-4 8 28 8 28-7 19-7 20-7-12-7-12h-50l-6 16-6 17 11 18c17 27 15 29-19 29h-31l-29-29-29-29v-53l-10 6-10 6v100l15 29c8 16 25 36 37 44l22 16h61l31-19zm-321-288c-11-2-30-6-42-8-12-3-29-12-37-21l-16-15v-54l20-33 20-33 30-17c34-19 37-33 14-53l-16-13-34 1-35 1-25 17c-14 9-35 32-46 51l-20 34h-28v-17c0-29 37-82 72-104l33-20 55 6c30 3 66 5 80 5s50-2 80-5l55-6 33 20c35 22 72 75 72 104v17h-29l-22-39-22-40-29-12c-54-22-118-8-118 27v13l20 6c11 3 33 23 50 43l30 37v74l-27 14c-33 17-90 26-118 20zm-79-348-6-16 33-19 32-20h104l25 23 26 22-8 12-8 13-39-20c-49-25-61-25-108 0-44 24-43 24-51 5zm-129-312c-4-3-7-40-7-82v-76l11-38 10-38 36-40c20-22 55-50 77-62l41-21h130l36 17c49 24 98 74 120 122l19 40v174l-7 4c-5 3-42-1-83-9-113-20-273-15-361 11-8 3-18 2-22-2zm238-58c55 0 122 4 149 8l48 9-3-75-4-74-28-41-27-42-52-26-52-26-48 4-48 5-47 29-46 29-24 44-23 44v128l53-8c28-4 97-8 152-8zm115-72c-26-72-45-90-105-103l-30-6v-29l30-3 31-3 34 23 35 23 24 48 23 47-6 15c-9 23-26 18-36-12z"/></g><g fill="#442f1b" transform="matrix(.1 0 0 -.1 0 300)"><path d="M1086 2440c-38-12-65-37-82-79l-14-33v-115l32-63 32-62-29-24c-17-14-34-28-40-33-31-25-109-122-135-168l-30-53-26-87-26-88-5-165-6-165 12-86 11-87 27-73 26-74 40-60c22-33 72-91 111-129l71-68 100-48 100-48 60-13 60-14h270l60 18c79 24 170 65 225 101 62 41 158 139 203 208l37 57 25 73 25 73 10 85c5 47 10 138 10 202 0 200-27 328-93 448l-30 55-86 85-86 85 32 55 33 54v127l-14 32c-19 46-40 65-87 77l-41 11-54-17-53-17-41-34-40-34-11 6c-21 13-124 34-170 35h-45l-72-19-71-18-23 25c-27 29-119 72-151 71-12 0-35-5-51-9zm125-46c15-7 41-28 59-46l32-32 42 12c22 7 71 17 107 22l65 11 70-16c38-9 80-19 93-22l23-6 22 26c11 14 45 38 74 53l53 27 32-10 32-9-43-24-44-25-25-43-25-42 13-18c7-9 30-36 51-59 39-43 86-130 108-198 7-22 30-76 50-120l37-80 14-68 13-67-13-53c-24-96-74-161-172-223-62-39-131-62-233-79-119-19-165-19-287 0l-97 14-64 26-64 25-62 50-61 50-25 43-25 42-12 62-13 61 21 74c21 74 103 280 141 353 11 22 43 66 71 98s51 61 51 64c0 4-11 25-25 49l-25 43-41 23-40 22 18 8 18 7 30-6c17-3 42-11 56-19zm-66-65 35-31v-15c0-9-15-32-33-52-17-20-42-49-55-66l-22-30-15 20c-20 26-35 81-35 132v42l16 15 15 16h58l36-31zm825 12 10-20v-96l-20-42c-10-24-23-43-27-42-13 1-113 127-113 143 0 8 16 28 35 45l36 31h68l11-19zm-995-439-35-80-15-73-16-74 6-45c4-25 15-67 26-94l18-50 37-37 36-37-22-53c-12-30-26-65-32-78-5-14-12-61-15-105l-5-81 16-68c20-87 63-170 126-246l50-61-26 10c-27 11-106 72-154 120-69 68-138 201-161 313l-11 49 4 231 5 232 25 68c31 83 90 180 137 227l35 34 3-11c2-5-12-46-32-91zm1063 64c34-30 116-171 138-236l19-55v-540l-33-76c-41-95-101-182-172-246-48-44-120-93-136-93-3 0 14 22 38 49l45 50 36 68c81 154 87 307 21 466l-25 59 40 43 40 43 17 59 17 58v65l-1 65-21 63c-12 35-33 87-46 115-14 28-25 57-25 64v14l13-7c6-4 22-16 35-28zm-924-615c28-16 92-42 141-57l90-27 155-1 155-1 90 29c50 15 113 41 142 56l52 29 10-13c17-21 38-86 51-164l12-72-17-81-16-82-34-67-34-67-70-65-71-66-65-26c-36-14-97-32-135-38l-70-12-70 12c-38 6-99 24-136 39l-67 26-70 66-69 65-34 68-35 69-15 76-16 76 11 72c10 66 47 185 59 185 2 0 28-13 56-29zm109 781c-13-4-39-22-59-41l-36-35-19-44c-24-56-24-83 1-132l20-40 41-21 42-21 53 4 54 3v-11c0-6-7-17-15-24l-15-12 6-9c10-17 24-9 53 31l29 41 18 54 17 55-6 57-6 57-19 25c-10 14-29 33-43 43l-24 19-35 4c-19 2-45 1-57-3zm99-47 37-25 10-38c14-48 13-70-3-107l-13-30-7 28-6 27-20-10-20-11-21 12-21 11 7 34c3 19 4 34 2 34s-18-5-36-11l-32-11-14-29c-18-33-19-63-5-90l11-19h-10c-5 0-19 12-30 26l-21 27v78l19 37c23 45 50 70 87 82 43 13 46 12 86-15zm362 41-31-14-27-35-27-36-6-54-6-54 18-54c10-30 31-73 47-96l29-43h14c19 0 18 10 0 34-23 30-19 33 43 29l57-4 35 19 35 18 23 44c28 56 28 79-3 145l-26 53-35 27-35 27-37 4-37 4-31-14zm89-30c43-18 72-52 90-105l15-45-9-30c-5-17-18-39-29-50l-20-21 6 48 7 48-25-10-24-9-18 10-17 10 3 31 3 32-25-3-24-3-22-20-23-21-9-37-9-36-13 43-13 42 12 40 12 40 22 21c21 20 52 37 70 38 4 1 22-5 40-13zm-365-327-28-21v-19c0-32 27-75 67-108l38-31-11-18-11-17-32-9-32-9-35 16-34 17-20 32c-11 18-22 38-24 43l-3 10-12-11-12-11 16-34 17-35 33-22c18-13 48-25 67-28l34-6 38 16 38 16 28-15 29-15h67l41 26 41 27 16 34c19 41 20 53 3 53h-13l-17-35-17-35-32-20-33-20h-51l-22 16c-12 8-22 22-22 30v14l23 11 24 11 26 41 27 41v43l-21 19-21 19-71 3-72 3-27-22zm-3-329-5-8 29-21 29-21h77l33 20c17 11 32 24 32 30 0 12-27 13-34 1-3-5-21-12-40-15l-34-7-41 15-41 14-5-8zm-141-325c-4-9-4-51-2-94l5-78 39-58 39-58 49-25 48-25h58l59 1 47 23 46 24 27 32c15 18 35 55 44 81l18 49-3 69-3 69-35-3c-19-2-105-4-190-5l-155-2-42 8-43 9-6-17zm236-40c36 0 95 3 132 8l66 7 7-39 6-39-15-50c-8-28-22-62-31-76l-17-25-45-26-46-25h-123l-24 17c-41 27-81 66-96 94l-13 27-7 72-6 71 73-8c41-4 103-8 139-8zm120-81c-6-14-10-29-10-33 0-16-49-52-84-62l-36-10v-10c0-5 7-12 15-15l15-6 44 22 45 21 21 33 20 33v53h-10c-6 0-15-12-20-26z"/></g><g fill="#363329" transform="matrix(.1 0 0 -.1 0 300)"><path d="M1111 2446c2-2 22-6 44-9l40-6-15 9c-14 9-79 15-69 6zm747-3c6-2 18-2 25 0l12 5h-50l13-5zm50-10c7-3 16-2 19 1 4 3-2 6-13 5l-19-1 13-5zm-869-20-14-18 18 14c9 7 17 15 17 17 0 8-8 3-21-13zm47-2-6-9 25-16c13-9 28-16 32-16s-5 9-21 19l-29 19 19 5 19 5-17 1c-9 0-19-3-22-8zm64 5c0-2 11-6 25-8l24-5-5 8c-5 9-44 13-44 5zm85-2c6-5 26-23 45-39l35-30-25 28c-14 16-34 33-45 39l-20 10 10-8zm520-4-6-10 15 6c18 7 21 14 7 14-6 0-13-4-16-10zm138 3 17-5-6-10-7-11 12 7 11 7-5 10c-4 5-14 8-23 8l-17-1 18-5zm-115-19c-38-20-36-28 2-9 17 9 30 18 30 20 0 7-1 6-32-11zm-567 3c2-1 13-9 24-17l20-15-14 18c-7 9-18 17-24 17s-8-1-6-3zm498-24-24-28 28 24c25 23 32 31 24 31-2 0-14-12-28-27zm-241 10c17-2 47-2 65 0l32 4h-130l33-4zm-421-20-5-8h76l-5 8c-2 4-17 7-33 7s-31-3-33-7zm103 3c0-2 8-10 18-17l17-14-14 18c-13 16-21 21-21 13zm110-5c0-6 4-13 10-16l10-6-6 15c-7 18-14 21-14 7zm368 2c7-3 16-2 19 1 4 3-2 6-13 5l-19-1 13-5zm229-25-33-33 28 24 27 24 38 7 38 8-33 1-32 1-33-32zm134 22c0-8 4-22 9-30l10-15-1 10c0 6-4 19-9 30l-9 20v-15zm-663-7c7-3 16-2 19 1 4 3-2 6-13 5l-19-1 13-5zm100 0c12-2 30-2 40 0l17 5-40-1h-40l23-4zm120 0c6-2 18-2 25 0l12 5h-50l13-5zm268-18c-9-14-15-25-13-25s13 11 25 25 18 25 13 25-16-11-25-25zm150 12c3-10 9-15 12-12s0 11-7 18l-12 12 7-18zm-816-22c13-14 26-25 28-25 3 0-5 11-18 25s-26 25-28 25c-3 0 5-11 18-25zm556 8-7-18 12 12c7 7 10 15 7 18s-9-2-12-12zm-66 3c0-2 7-7 16-10l15-6-6 10c-6 10-25 14-25 6zm343-61v-40l4 23c2 12 2 30 0 40l-5 17 1-40zm-971 0v-30l5 18c2 9 2 23 0 30l-5 12v-30zm188 20c0-5 5-17 10-25l10-15v10c0 6-5 17-10 25l-10 15v-10zm-19-16c-1-8-12-26-25-38s-38-43-56-69l-34-47 21 18 21 18 3-10 4-10 49 57 48 57-46-47c-26-27-49-48-52-48-12 0 0 22 37 64l41 46-5 12-5 13-1-16zm599-8c0-6 4-13 10-16l10-6-6 15c-7 18-14 21-14 7zm40-14c0-2 15-16 33-33l32-29-29 33c-28 30-36 37-36 29zm-828-27v-25l5 13c2 6 2 18 0 25l-5 12v-25zm838-25c19-19 36-35 38-35 8 0-53 69-62 69-6 1 5-15 24-34zm-809 9 1-19 5 13c3 7 2 16-1 19-3 4-6-2-5-13zm980 0 1-19 5 13c3 7 2 16-1 19-3 4-6-2-5-13zm-34-13-6-24 11 11c5 5 8 16 6 23l-4 13-7-23zm-71-36c4-8 11-15 16-15h10l-12 15c-7 8-14 15-16 15s-1-7 2-15zm67-27c-15-20-25-38-20-38 3 0 12 11 21 25 17 26 16 35-1 13zm-710-5c9-2 23-2 30 0l12 5h-60l18-5zm470 0c9-2 25-2 35 0l17 5h-70l18-5zm-528-13-6-10 15 6c18 7 21 14 7 14-6 0-13-4-16-10zm120 4c6-5 26-23 45-39l35-30-25 28c-14 16-34 33-45 39l-20 10 10-8zm466 3c2-1 13-9 24-17l20-15-14 18c-7 9-18 17-24 17s-8-1-6-3zm-735-22 6-16-18-22-19-22 23 19c23 20 28 41 12 51l-10 6 6-16zm593-12-24-28 28 24c25 23 32 31 24 31-2 0-14-12-28-27zm-554 6c-4-6-5-12-2-15 2-3 7 2 10 11 7 17 1 20-8 4zm153 4c7-3 16-2 19 1 4 3-2 6-13 5l-19-1 13-5zm-59-30-24-28 30 25c17 14 32 26 34 28 2 1 0 2-6 2-5 0-20-12-34-27zm490 10-14-18 18 14c16 13 21 21 13 21-2 0-10-8-17-17zm161 13c0-2 8-10 18-17l17-14-14 18c-13 16-21 21-21 13zm-15-26c10-11 20-20 23-20s-3 9-13 20-20 20-23 20 3-9 13-20zm106 0c14-31 19-36 19-24 0 6-7 19-16 30l-15 19 12-25zm19 17c0-3 21-22 47-43s44-33 40-27c-9 14-87 77-87 70zm-589-24c7-12 15-20 18-17 3 2-3 12-13 22l-18 17 13-22zm-286-4c-4-6-5-12-2-15 2-3 7 2 10 11 7 17 1 20-8 4zm538-14c-3-9-3-18-1-21 3-3 8 4 11 16 6 23-1 27-10 5zm32 4c-4-6-5-12-2-15 2-3 7 2 10 11 7 17 1 20-8 4zm-640-7c-5-4-23-23-40-42l-30-35 43 40c38 35 47 45 40 45-2 0-7-4-13-8zm150-13c-4-6-5-12-2-15 2-3 7 2 10 11 7 17 1 20-8 4zm705-4c0-5 5-17 10-25l10-15v10c0 6-5 17-10 25l-10 15v-10zm-596-34v-20l8 5c10 7 10 34 0 34-4 0-8-9-8-19zm339-31v-55l4 28c2 15 2 39 0 55l-4 27v-55zm145 44 9-5-5-24-4-25 12-15c7-8 18-15 24-15l11 1-18 10-18 11 3 31 3 30-13 3c-7 1-9 0-4-2zm248-1c-3-3-6-11-6-17v-11l9 13 8 14 39-33 39-33-25 28c-14 15-32 32-41 37l-16 8-7-6zm-949-10c-4-3-7-13-7-22l1-16 10 18c11 19 8 33-4 20zm1003 4c0-2 15-16 33-33l32-29-29 33c-28 30-36 37-36 29zm-947-52v-40l4 23c2 12 2 30 0 40l-5 17 1-40zm30 0v-40l4 23c2 12 2 30 0 40l-5 17 1-40zm748 19 1-19 5 13c3 7 2 16-1 19-3 4-6-2-5-13zm31-14v-35l5 18c2 9 2 25 0 35l-5 17v-35zm-237 9c-4-6-5-12-2-15 2-3 7 2 10 11 7 17 1 20-8 4zm295 6c0-5 5-17 10-25l10-15v10c0 6-5 17-10 25l-10 15v-10zm-1020-16v-10l10 6c6 3 10 8 10 11 0 2-4 4-10 4-5 0-10-5-10-11zm1056-2c3-10 9-15 12-12s0 11-7 18l-12 12 7-18zm-1014-29-11-33 14 19c13 17 21 46 12 46-1 0-8-15-15-32zm420 7v-30l5 18c2 9 2 23 0 30l-5 12v-30zm-232-11c0-16 5-36 10-44l9-15-6 40c-7 49-13 58-13 19zm97 15c7-7 15-10 18-7s-2 9-12 12l-18 7 12-12zm53 1-15-10h12c6 0 15 5 18 10 8 12 4 12-15 0zm46-15-8-30-8 20-9 20v-17c-1-9 3-19 8-23l10-6 11 21c6 12 10 26 7 33l-4 12-7-30zm255 15c0-8 4-22 9-30l10-15-1 10c0 6-4 19-9 30l-9 20v-15zm250-7-1-22-26-28-25-28 6 35 5 35-10-24c-6-14-8-31-6-38l6-13 19 12c24 14 45 61 38 80l-5 13-1-22zm-988-5c-15-18-35-58-29-58 2 0 13 16 25 35 20 35 22 46 4 23zm27-8c-6-11-8-20-6-20 3 0 10 9 16 20s8 20 6 20c-3 0-10-9-16-20zm742 0v-25l5 13c2 6 2 18 0 25l-5 12v-25zm448 16c0-2 8-10 18-17l17-14-14 18c-13 16-21 21-21 13zm-90-12c0-6 7-19 16-30l15-19-12 25c-14 31-19 36-19 24zm-1018-39c-17-37-14-45 4-12 9 16 14 31 11 33-2 2-9-7-15-21zm998 16c0-6 4-13 10-16l10-6-6 15c-7 18-14 21-14 7zm110-9c6-13 14-21 18-18 3 4-2 14-12 24l-18 17 12-23zm-980-21c5-11 15-23 21-27l11-6-17 26c-20 30-30 35-15 7zm20 15c0-2 8-10 18-17l17-14-14 18c-13 16-21 21-21 13zm1015-36c9-16 18-30 21-30 2 0-2 14-11 30-9 17-18 30-21 30-2 0 2-13 11-30zm-788-15c-9-19-15-35-12-35 7 0 37 61 33 66-3 2-12-12-21-31zm492 18-14-18 18 14c9 7 17 15 17 17 0 8-8 3-21-13zm-1029-14c-7-11-10-23-7-25 2-2 9 7 15 21 14 30 7 33-8 4zm1190 6c0-5 5-17 10-25l10-15v10c0 6-5 17-10 25l-10 15v-10zm-1165-16c-4-6-5-12-2-15 2-3 7 2 10 11 7 17 1 20-8 4zm965 1-15-10h12c6 0 15 5 18 10 8 12 4 12-15 0zm-530-10-25-8 22-1c12-1 25 4 28 9 3 6 5 10 3 9s-14-5-28-9zm408-2c5-5 16-8 23-6l13 4-23 7-24 6 11-11zm-490-5c7-3 16-2 19 1 4 3-2 6-13 5l-19-1 13-5zm-277-19 1-19 5 13c3 7 2 16-1 19-3 4-6-2-5-13zm-98-9c-3-9-3-18-1-21 3-3 8 4 11 16 6 23-1 27-10 5zm593 7-5-8 30 4c16 2 29 6 29 8 0 8-49 4-54-4zm-475-18 1-19 5 13c3 7 2 16-1 19-3 4-6-2-5-13zm348-1-14-18 18 14c16 13 21 21 13 21-2 0-10-8-17-17zm30 0-14-18 18 14c16 13 21 21 13 21-2 0-10-8-17-17zm259 1 22-15 1-27 2-27 4 23 5 24-18 19c-9 10-22 19-28 19s0-7 12-16zm453 0 1-19 5 13c3 7 2 16-1 19-3 4-6-2-5-13zm-651-8-12-15 4-21 3-22 11 36c12 40 12 42-6 22zm270 10c0-2 8-10 18-17l17-14-14 18c-13 16-21 21-21 13zm36-9c3-10 9-15 12-12s0 11-7 18l-12 12 7-18zm375-13 1-19 5 13c3 7 2 16-1 19-3 4-6-2-5-13zm120 11c0-5 4-19 9-30l9-20v15c0 8-4 22-9 30l-10 15 1-10zm-1270-21 1-19 5 13c3 7 2 16-1 19-3 4-6-2-5-13zm20-10 1-19 5 13c3 7 2 16-1 19-3 4-6-2-5-13zm1110 0 1-19 5 13c3 7 2 16-1 19-3 4-6-2-5-13zm-1138-59v-40l4 23c2 12 2 30 0 40l-5 17 1-40zm1169 15v-25l5 13c2 6 2 18 0 25l-5 12v-25zm-682-9c5-11 15-23 21-27l11-6-17 26c-20 30-30 35-15 7zm185-7-17-26 11 6c11 7 35 46 28 46-3 0-12-12-22-26zm607-14v-25l5 13c2 6 2 18 0 25l-5 12v-25zm-1390-10v-25l5 13c2 6 2 18 0 25l-5 12v-25zm-31-6 1-19 5 13c3 7 2 16-1 19-3 4-6-2-5-13zm494 6-6-10 11-17 12-18-7 19-6 19 13 9 13 8h-12c-6 0-15-4-18-10zm453 2 13-9-7-19-6-19 11 15c6 8 11 21 11 28v12h-35l13-8zm504-17v-30l5 18c2 9 2 23 0 30l-5 12v-30zm-1281-11 1-19 5 13c3 7 2 16-1 19-3 4-6-2-5-13zm523-6 19-15-6-17c-4-9-17-21-29-26l-23-9h16c9-1 24 8 35 20l18 20-10 16c-6 9-17 19-25 21l-14 4 19-14zm587 5c-1-6-4-20-7-30l-6-18 12 18c6 10 9 23 6 30l-4 12-1-12zm-1130-19 1-19 5 13c3 7 2 16-1 19-3 4-6-2-5-13zm379 9c0-5 10-18 23-29l22-19-20 25c-11 14-21 27-22 29-2 2-3 0-3-6zm213-8-5-16 17-19c10-11 23-20 29-20s0 7-13 16l-23 16 5 19c6 23-1 25-10 4zm-719-185v-195l3 98c2 53 2 141 0 195l-3 97v-195zm1410-5c0-110 2-156 3-103 2 53 2 143 0 200l-3 103v-200zM951 1574l1-19 5 13c3 7 2 16-1 19-3 4-6-2-5-13zm335 4c3-7 17-22 32-32l27-19-29 31c-32 35-38 38-30 20zm383-5-14-18 18 14c9 7 17 15 17 17 0 8-8 3-21-13zm15-15-29-31 27 19c15 10 29 25 32 32 8 18 2 15-30-20zm-920-148v-165l3 83c2 45 2 119 0 165l-3 82v-165zm1470 10v-155l3 78c2 42 2 112 0 155l-3 77v-155zm-877 129c7-7 15-10 18-7s-2 9-12 12l-18 7 12-12zm273 1-15-10h12c6 0 15 5 18 10 8 12 4 12-15 0zm396-17-7-18 12 12c7 7 10 15 7 18s-9-2-12-12zm-1086 1c0-12 38-74 46-74 3 0-5 17-17 38-28 46-29 47-29 36zm570 2c0-2 7-7 16-10l15-6-6 10c-6 10-25 14-25 6zm-117-23c9-2 25-2 35 0l17 5h-70l18-5zm175 0c12-2 32-2 45 0l22 4h-90l23-4zm465-15c-6-7-14-19-18-27l-8-14 11 7c12 7 36 46 29 46-3 0-9-6-14-12zm-1018-38c10-11 20-20 23-20s-3 9-13 20-20 20-23 20 3-9 13-20zm930-27-50-46 30 21c28 19 84 73 74 72-2-1-26-22-54-47zm-945 13c0-2 8-10 18-17l17-14-14 18c-13 16-21 21-21 13zm406-5-6-9 18-13 17-14-12 16-13 16 7 6c3 4 4 7 0 7-3 0-8-4-11-9zm-331-31c10-11 20-20 23-20s-3 9-13 20-20 20-23 20 3-9 13-20zm383 13c7-3 16-2 19 1 4 3-2 6-13 5l-19-1 13-5zm70 0c7-3 16-2 19 1 4 3-2 6-13 5l-19-1 13-5zm-83-23c3-5 16-10 28-9h22l-20 9c-11 5-24 9-28 9l-8 1 6-10zm73-7c7-3 16-2 19 1 4 3-2 6-13 5l-19-1 13-5zm392-19-25-14h17c9 0 20 5 23 10l7 11 14-12 14-12-6 17c-7 19-11 19-44 0zm-64-9-20-15h11c6 0 16 7 23 15 16 19 11 19-14 0zm-817-21c-5-15-8-29-5-31 2-2 8 10 14 26 13 38 5 41-9 5zm81 12c0-3 9-10 20-16s20-8 20-6c0 3-9 10-20 16s-20 8-20 6zm-114-21c-9-26-7-32 5-12 6 10 9 21 6 23-2 3-7-2-11-11zm794 5-15-10h10c6 0 17 5 25 10l15 10h-10c-5 0-17-5-25-10zm200 5c0-5 5-17 10-25l10-15v10c0 6-5 17-10 25l-10 15v-10zm-830-19c0-2 9-6 20-9l20-5-6 9c-5 9-34 13-34 5zm558-13c7-3 16-2 19 1 4 3-2 6-13 5l-19-1 13-5zm-405-10c9-2 23-2 30 0l12 5h-60l18-5zm297-3-35-7 35-1c19 0 49 4 65 8l30 8h-30c-16-1-46-4-65-8zm-352-7c7-3 16-2 19 1 4 3-2 6-13 5l-19-1 13-5zm135 0c9-2 23-2 30 0l12 5h-60l18-5zm618-9 1-19 5 13c3 7 2 16-1 19-3 4-6-2-5-13zm-1035-9c-3-9-6-24-5-33l1-17 9 29c9 32 6 48-5 21zm322 8c7-3 16-2 19 1 4 3-2 6-13 5l-19-1 13-5zm45-10c9-2 25-2 35 0l17 5h-70l18-5zm300 0c9-2 23-2 30 0l12 5h-60l18-5zm-642-19 1-19 5 13c3 7 2 16-1 19-3 4-6-2-5-13zm452 9c32-2 81-2 110 0l52 3h-220l58-3zm539-13v-25l5 13c2 6 2 18 0 25l-5 12v-25zm29-6 1-19 5 13c3 7 2 16-1 19-3 4-6-2-5-13zm-1029-44v-35l5 18c2 9 2 25 0 35l-5 17v-35zm1010-5v-30l5 18c2 9 2 23 0 30l-5 12v-30zm220 0v-30l5 18c2 9 2 23 0 30l-5 12v-30zm-1450-5v-25l5 13c2 6 2 18 0 25l-5 12v-25zm191-50v-75l4 38c2 20 2 54 0 75l-4 37v-75zm1070-10v-75l4 38c2 20 2 54 0 75l-4 37v-75zm159 40v-25l5 13c2 6 2 18 0 25l-5 12v-25zm-1411-30c0-8 6-28 14-45 17-39 18-21 0 25l-13 35-1-15zm1425-15c-3-9-6-22-5-28 0-7 5-1 10 12s8 26 5 28c-2 2-6-3-10-12zm-941-6c-4-6-5-12-2-15 2-3 7 2 10 11 7 17 1 20-8 4zm423 4c7-3 16-2 19 1 4 3-2 6-13 5l-19-1 13-5zm42-76 5-82 3 74 3 74-8 8-8 8 5-82zm-402 66c6-2 18-2 25 0l12 5h-50l13-5zm320 0c7-3 16-2 19 1 4 3-2 6-13 5l-19-1 13-5zm-200-10c28-2 76-2 105 0l52 3h-210l53-3zm-150-10c6-2 18-2 25 0l12 5h-50l13-5zm379 0 22-4 4-22 4-22 2 28 1 27-27-1-28-2 22-4zm325-18v-30l5 18c2 9 2 23 0 30l-5 12v-30zm-1010-5v-25l5 13c2 6 2 18 0 25l-5 12v-25zm271-40v-65l4 33c2 17 2 47 0 65l-4 32v-65zm95 53c6-2 18-2 25 0l12 5h-50l13-5zm270 0c7-3 16-2 19 1 4 3-2 6-13 5l-19-1 13-5zm538-8c-9-26-7-32 5-12 6 10 9 21 6 23-2 3-7-2-11-11zm-698-2c17-2 47-2 65 0l32 4h-130l33-4zm553-39 1-19 5 13c3 7 2 16-1 19-3 4-6-2-5-13zm-1019-14v-25l5 13c2 6 2 18 0 25l-5 12v-25zm989 4 1-19 5 13c3 7 2 16-1 19-3 4-6-2-5-13zm155-1-7-18 12 12c7 7 10 15 7 18s-9-2-12-12zm-1319-23c3-11 9-22 13-25l8-5-5 20c-3 11-9 22-13 25l-8 5 5-20zm1334-7-11-28 15 19c8 11 15 23 15 28 0 15-7 8-19-19zm-1180 1 1-19 5 13c3 7 2 16-1 19-3 4-6-2-5-13zm1030 0 1-19 5 13c3 7 2 16-1 19-3 4-6-2-5-13zm-719-24v-25l5 13c2 6 2 18 0 25l-5 12v-25zm349 13c-1-6-4-20-7-30l-6-18 12 18c6 10 9 23 6 30l-4 12-1-12zm55-19c-4-14-5-28-3-31 3-2 8 8 11 23 4 14 5 28 3 31-3 2-8-8-11-23zm-826 9c0-6 8-17 18-24l17-14-15 20c-8 11-16 22-17 24-2 2-3 0-3-6zm1241-16-13-22 18 17c10 10 16 20 13 22-3 3-11-5-18-17zm-1121 8c0-5 5-17 10-25l10-15v10c0 6-5 17-10 25l-10 15v-10zm281-21 1-19 5 13c3 7 2 16-1 19-3 4-6-2-5-13zm306-19c-15-14-24-25-19-25s19 11 32 25c30 32 23 32-13 0zm379-2-7-18 12 12c7 7 10 15 7 18s-9-2-12-12zm163 0-14-18 18 14c16 13 21 21 13 21-2 0-10-8-17-17zM890 900c12-16 24-30 26-30 3 0-4 14-16 30-12 17-24 30-26 30-3 0 4-13 16-30zm10 26c0-2 8-10 18-17l17-14-14 18c-13 16-21 21-21 13zm706-13-7-18 12 12c7 7 10 15 7 18s-9-2-12-12zm-576-33c11-22 23-40 25-40 3 0-4 18-15 40s-23 40-25 40c-3 0 4-18 15-40zm666 13-7-18 12 12c7 7 10 15 7 18s-9-2-12-12zm-328-40c24-24 49-43 55-43s0 7-13 17c-14 9-39 28-56 42-16 14-10 7 14-16zm150 40c7-3 16-2 19 1 4 3-2 6-13 5l-19-1 13-5zm137-19-17-26 11 6c11 7 35 46 28 46-3 0-12-12-22-26zm276-1-11-28 15 19c8 11 15 23 15 28 0 15-7 8-19-19zm158 10-14-18 18 14c16 13 21 21 13 21-2 0-10-8-17-17zm-34-4c-4-6-5-12-2-15 2-3 7 2 10 11 7 17 1 20-8 4zm-547-16c7-3 16-2 19 1 4 3-2 6-13 5l-19-1 13-5zm-173-23c10-11 20-20 23-20s-3 9-13 20-20 20-23 20 3-9 13-20zm697-21c-24-23-42-43-40-45 3-2 24 17 48 41 55 56 50 58-8 4zM930 846c0-2 8-10 18-17l17-14-14 18c-13 16-21 21-21 13zm668-12c-38-20-36-28 2-9 17 9 30 18 30 20 0 7-1 6-32-11zm262-51-55-58 58 55c53 50 62 60 54 60-1 0-27-26-57-57zm119 20-34-36 27 19c22 16 54 54 45 54-2 0-19-16-38-37zm-880-22 41-49-12-5-13-5 22 1 21 1-45 53c-25 29-48 53-50 53-3 0 14-22 36-49zm41-6c30-30 57-55 59-55 3 0-19 25-49 55s-57 55-59 55c-3 0 19-25 49-55zm-137 38c9-14 87-77 87-70 0 3-21 22-47 43s-44 33-40 27zm-33-7c0-2 8-10 18-17l17-14-14 18c-13 16-21 21-21 13zm427-7c7-7 15-10 18-7s-2 9-12 12l-18 7 12-12zm91 4c12-2 30-2 40 0l17 5-40-1h-40l23-4zm97-3-6-10h10c5 0 13 5 16 10l6 10h-10c-5 0-13-4-16-10zm287-40-33-38 13-8 13-7-8 8-7 9 37 38c20 21 33 38 28 37-6 0-25-18-43-39zm-434 23c6-2 18-2 25 0l12 5h-50l13-5zm50-10c7-3 16-2 19 1 4 3-2 6-13 5l-19-1 13-5zm-456-19c9-10 32-28 50-38 39-22 29-11-27 29l-40 29 17-20zm913-9c-16-14-34-25-38-25-5 0-15-7-23-15-9-8-13-15-9-15 9 0 93 59 100 70 9 15 3 12-30-15zm-70-15-6-10 15 6c18 7 21 14 7 14-6 0-13-4-16-10zm-104-20c-13-11-19-20-14-20 6 0 18 9 28 20 23 25 17 25-14 0zm-630-24c2-2 15-9 29-15l25-12-19 15c-16 13-49 24-35 12zm549-16-15-10h10c6 0 17 5 25 10l15 10h-10c-5 0-17-5-25-10zm85-15-30-14h15c8 0 26 6 40 14 32 18 15 18-25 0zm-535-15c8-5 22-9 30-9h15l-20 9c-11 5-24 9-30 9l-10 1 15-10zm378 3c7-3 16-2 19 1 4 3-2 6-13 5l-19-1 13-5zm-210-10c6-2 18-2 25 0l12 5h-50l13-5zm160 0c6-2 18-2 25 0l12 5h-50l13-5zm-193-23c19-8 83-14 74-6-2 2-24 6-49 9l-45 6 20-9zm258 3c9-2 25-2 35 0l17 5h-70l18-5zm-75-10c12-2 30-2 40 0l17 5-40-1h-40l23-4z"/></g></g></svg>