<svg xmlns="http://www.w3.org/2000/svg" baseProfile="tiny-ps" version="1.2" viewBox="0 0 300 300"><path fill="#2d3c3c" d="m105.3 57-3.2 1.9-1.5 2.8c-.8 1.6-1.7 4.9-2.1 7.5l-.7 4.6 1.6 5.4 1.6 5.5 2.2 2.8 2.2 2.8-6.6 6.1c-8.3 7.8-11.9 12.6-16.3 21.8l-3.5 7.4-1.6 7.4-1.6 7.5.5 21.5.4 21.5 2.2 7c1.3 3.8 3.7 9.7 5.4 13l3.2 6 9 9.1 9 9 9.5 4.6 9.5 4.6 7.2 1.6 7.2 1.6h22.6l8.5-2 8.5-2.1 7.5-4c8.9-4.9 15.8-10.3 22.3-17.8l4.9-5.6 3.8-8 3.8-8 1.6-7.2 1.6-7.2v-38.6l-1.5-7-1.5-7-4.6-9.5-4.7-9.5-8.2-8-8.2-8.1 3.1-5.4 3-5.4v-7.1l.1-7-1.8-3.3-1.8-3.3-3.2-1.9-3.2-2h-8.3l-3.8 1.6c-2.2.9-5.6 3-7.6 4.6l-3.7 2.9-5.2-1.5-5.3-1.6h-13.8l-6 1.5-5.9 1.6-3.2-2.7c-1.8-1.5-5.1-3.5-7.5-4.5l-4.4-1.9h-8.3zm14.8 3.6c1.7.8 4.7 3 6.8 4.9l3.7 3.4 6.3-1.9 6.3-2h13.6l6.3 2 6.3 1.9 3.9-3.5c2.2-2 5.4-4.2 7.3-5l3.3-1.4h3.8l3.8.1-3.6 1.9c-4.3 2.3-8.6 7.1-9.5 10.6l-.6 2.4 4.5 4.9 4.5 4.8 3.1 6.1c1.7 3.4 4.2 8.9 5.5 12.4 1.4 3.5 3.9 9.7 5.6 13.8l3.2 7.5.5 7.1.6 7.1-1.8 5.4-1.8 5.4-6.1 6.1-6.1 6-5.5 2.7c-3 1.5-9.3 3.6-13.9 4.8l-8.4 2.1-14.1-.5-14.1-.4-5.8-1.7c-3.2-.9-8.3-2.8-11.3-4.2l-5.4-2.5-5.3-4.9-5.2-4.8-2.5-4.8-2.5-4.9V133l.1-8.5 5.8-14.5c7.3-18.2 10.9-25 16.3-31l4.3-4.8v-1.6c0-1-1.1-3.4-2.5-5.4l-2.5-3.7-4.2-2.2-4.3-2.2 4.3-.1h4.3zm-5.7 6.8c4.3 4 4.5 5.5 1 8.7-1.5 1.3-3.9 4.1-5.5 6.2l-2.8 3.9-2-3.3-2-3.3-.7-4.2-.6-4.2.7-2.4c.4-1.2 1.2-2.9 1.7-3.6l1-1.2h5.7zm82-1.2 1.6 2.2v3.1c0 3.9-1.5 9.1-3.5 12.2l-1.6 2.4-4.5-6.1c-2.5-3.3-5-6.2-5.5-6.5l-.9-.6 1.5-2.9 1.5-2.9 2.8-1.5c1.5-.9 3.7-1.5 4.9-1.6h2.2zm-97 38.5c-.9 2.1-3 7.2-4.7 11.3l-3 7.5-.5 7.1-.4 7.2 1.7 5.5 1.7 5.4 4 5.4 4.1 5.3-1.3 3.1c-.7 1.6-2.1 5.9-3.1 9.5l-1.8 6.5v7.4l-.1 7.3 1.6 6.2c2 7.9 6.7 16.6 12.2 22.7 2.4 2.7 4.1 4.9 3.7 4.9s-3.6-2-7.1-4.5l-6.4-4.6-5-6.2-5.1-6.2-3.5-7.2-3.5-7.2-1.4-6.8-1.5-6.8v-37l1.5-7 1.5-7 3.9-8.1 4-8 4.1-4.7c2.3-2.6 4.6-4.7 5.1-4.7h.9zm105.6 1 4.2 4.8 3.5 6.9 3.4 6.8 2 7.6 1.9 7.5v38.2l-1.5 7-1.5 7-3.4 7c-1.9 3.8-5.6 9.7-8.3 12.9l-4.8 5.9-6.3 4.9c-3.5 2.6-6.8 4.8-7.3 4.8-.6 0 .9-2.2 3.3-4.9 5.5-6 10.3-14.9 12.3-22.6l1.5-5.9-.1-7.6v-7.5l-1.8-6.5c-1-3.6-2.4-7.9-3.1-9.5l-1.3-3.1 4.2-5.4 4.1-5.5 1.5-4.9 1.5-5v-11.1l-1.4-5c-.8-2.8-3-8.7-4.9-13.3l-3.6-8.2h.9c.4 0 2.7 2.1 5 4.7M119.4 169c2.9 1.1 8.5 2.7 12.2 3.5l6.9 1.5h24l8-1.9c8.9-2.2 16.3-5.1 20.6-8.2l2.8-2 1.6 3c.8 1.7 2.2 5.6 3 8.8l1.5 5.7v6.3c0 3.4-.5 8.6-1.1 11.5l-1.1 5.3-3.6 6.9-3.6 7-5.1 5.1-5 5.1-5.6 3.2-5.5 3.1-5.9 1.6-5.9 1.5H150c-9.4-.1-14.4-1.2-22.6-5.2l-6.4-3.1-5.8-5.8-5.8-5.7-3.3-6.2c-1.9-3.4-4-8.5-4.7-11.4l-1.4-5.1v-14.1l1.5-5.7c.8-3.2 2.2-7.1 3-8.7l1.5-3 4 2.5c2.2 1.4 6.4 3.4 9.4 4.5m0-81.1c-5.9 3.6-10.4 11.7-10.4 18.6v3.2l2.3 3.3c1.2 1.8 3.5 4.3 5 5.4l2.8 2.1 6.5-.1h6.4l-1.6 1.7-1.6 1.8.5 1.6c.4.8 1.1 1.5 1.6 1.5 1.5 0 7-8.3 8.6-13.1l1.5-4.2V97.5l-1.9-3.5-1.8-3.5-3.3-2.3-3.3-2.2h-8.2zm13.6 4.8 3.1 2.8.9 3.9.9 4-.6 2.8c-.3 1.6-1 3.1-1.4 3.4l-.9.5v-2.5c0-2.9-.3-3.1-2.9-1.4l-1.8 1.1-1.7-.6c-.9-.4-1.9-1.4-2.2-2.2l-.6-1.6 1.7-1.9 1.8-2h-6.1l-3.1 2.6-3.1 2.6v3.5c0 1.9.5 4.3 1 5.3l1 2-1.5-.6c-.9-.4-2.3-2-3.1-3.7l-1.6-3 .6-4.1.7-4.1 1.8-2.9c1-1.5 3.2-3.7 4.7-4.7l2.9-1.9h6.5zm33.2-4.7-3.3 2.1-2.1 4.6-2 4.6.4 6.6.5 6.6 2.3 4.5c2.8 5.4 6.1 10 7.2 10 .5 0 1.1-.7 1.5-1.5l.5-1.6-1.6-1.8-1.6-1.7h6.4l6.5.1 2.8-2.1c1.5-1.1 3.8-3.6 5.1-5.4l2.2-3.3v-3.2c0-1.8-.7-5.2-1.5-7.6l-1.6-4.4-2.7-2.8c-1.5-1.6-3.9-3.5-5.4-4.3l-2.7-1.4h-7.6zm13.4 3.9 3.1 1.9 2.2 4.4 2.1 4.4v3c0 3.3-1.9 7.6-3.7 8.1l-1.2.4.8-2.8.8-2.8-.7-1.9-.7-2-.7 1.2-.7 1.2h-5l-.6-1.6-.6-1.7 1.1-1.8c1.7-2.7 1.5-2.9-1.9-2.9h-3.1l-2.9 2.9-2.9 2.9v5.3l-1-.6-1-.6v-10l1.5-2.9c.8-1.6 2.5-3.6 3.7-4.4l2.2-1.6h6.1zm-32.1 28.8c-1.1.2-3 .6-4.2.8-1.2.3-2.9 1.2-3.7 2.1l-1.6 1.5v5.4l2 3.3 2 3.3 3 1.7c3.4 1.9 3.7 3.3 1.4 5.3l-1.6 1.3-3.4-.1-3.5-.1-2.5-1.7c-1.4-.9-3.5-3.2-4.6-5.1l-2-3.4H126v1.7c0 2.9 3.7 8.2 7.2 10.4l3.3 2 5.5-.6c3-.3 6.6-.5 8-.5s5 .2 8 .5l5.5.6 3.3-2c3.5-2.2 7.2-7.5 7.2-10.4V135h-2.9l-2.2 3.9-2.2 4-2.9 1.2c-5.4 2.2-11.8.8-11.8-2.7v-1.3l2-.6c1.1-.3 3.3-2.3 5-4.3l3-3.7v-7.4l-2.7-1.4c-3.3-1.7-9-2.6-11.8-2m-7.9 34.8-.6 1.6 3.3 1.9 3.2 2h10.4l2.5-2.3 2.6-2.2-.8-1.2-.8-1.3-3.9 2c-4.9 2.5-6.1 2.5-10.8 0-4.4-2.4-4.3-2.4-5.1-.5m-12.9 31.2c-.4.3-.7 4-.7 8.2v7.6l1.1 3.8 1 3.8 3.6 4c2 2.2 5.5 5 7.7 6.2l4.1 2.1h13l3.6-1.7c4.9-2.4 9.8-7.4 12-12.2l1.9-4v-17.4l-.7-.4c-.5-.3-4.2.1-8.3.9-11.3 2-27.3 1.5-36.1-1.1-.8-.3-1.8-.2-2.2.2m23.8 5.8c5.5 0 12.2-.4 14.9-.8l4.8-.9-.3 7.5-.4 7.4-2.8 4.1-2.7 4.2-5.2 2.6-5.2 2.6-4.8-.4-4.8-.5-4.7-2.9-4.6-2.9-2.4-4.4-2.3-4.4v-12.8l5.3.8c2.8.4 9.7.8 15.2.8m11.5 7.2c-2.6 7.2-4.5 9-10.5 10.3l-3 .6v2.9l3 .3 3.1.3 3.4-2.3 3.5-2.3 2.4-4.8 2.3-4.7-.6-1.5c-.9-2.3-2.6-1.8-3.6 1.2"/><path fill="#442f1b" d="M108.6 56c-3.8 1.2-6.5 3.7-8.2 7.9L99 67.2v11.5l3.2 6.3 3.2 6.2-2.9 2.4c-1.7 1.4-3.4 2.8-4 3.3-3.1 2.5-10.9 12.2-13.5 16.8l-3 5.3-2.6 8.7-2.6 8.8-.5 16.5-.6 16.5 1.2 8.6 1.1 8.7 2.7 7.3 2.6 7.4 4 6c2.2 3.3 7.2 9.1 11.1 12.9l7.1 6.8 10 4.8 10 4.8 6 1.3 6 1.4h27l6-1.8c7.9-2.4 17-6.5 22.5-10.1 6.2-4.1 15.8-13.9 20.3-20.8l3.7-5.7 2.5-7.3 2.5-7.3 1-8.5c.5-4.7 1-13.8 1-20.2 0-20-2.7-32.8-9.3-44.8l-3-5.5-8.6-8.5-8.6-8.5 3.2-5.5 3.3-5.4V66.9l-1.4-3.2c-1.9-4.6-4-6.5-8.7-7.7l-4.1-1.1-5.4 1.7-5.3 1.7-4.1 3.4-4 3.4-1.1-.6c-2.1-1.3-12.4-3.4-17-3.5h-4.5l-7.2 1.9-7.1 1.8-2.3-2.5c-2.7-2.9-11.9-7.2-15.1-7.1-1.2 0-3.5.5-5.1.9m12.5 4.6c1.5.7 4.1 2.8 5.9 4.6l3.2 3.2 4.2-1.2c2.2-.7 7.1-1.7 10.7-2.2l6.5-1.1 7 1.6c3.8.9 8 1.9 9.3 2.2l2.3.6 2.2-2.6c1.1-1.4 4.5-3.8 7.4-5.3l5.3-2.7 3.2 1 3.2.9-4.3 2.4-4.4 2.5-2.5 4.3-2.5 4.2 1.3 1.8c.7.9 3 3.6 5.1 5.9 3.9 4.3 8.6 13 10.8 19.8.7 2.2 3 7.6 5 12l3.7 8 1.4 6.8 1.3 6.7-1.3 5.3c-2.4 9.6-7.4 16.1-17.2 22.3-6.2 3.9-13.1 6.2-23.3 7.9-11.9 1.9-16.5 1.9-28.7 0l-9.7-1.4-6.4-2.6-6.4-2.5-6.2-5-6.1-5-2.5-4.3-2.5-4.2-1.2-6.2-1.3-6.1 2.1-7.4c2.1-7.4 10.3-28 14.1-35.3 1.1-2.2 4.3-6.6 7.1-9.8s5.1-6.1 5.1-6.4c0-.4-1.1-2.5-2.5-4.9l-2.5-4.3-4.1-2.3-4-2.2 1.8-.8 1.8-.7 3 .6c1.7.3 4.2 1.1 5.6 1.9m-6.6 6.5 3.5 3.1v1.5c0 .9-1.5 3.2-3.3 5.2-1.7 2-4.2 4.9-5.5 6.6l-2.2 3-1.5-2c-2-2.6-3.5-8.1-3.5-13.2v-4.2l1.6-1.5 1.5-1.6h5.8zm82.5-1.2 1 2v9.6l-2 4.2c-1 2.4-2.3 4.3-2.7 4.2-1.3-.1-11.3-12.7-11.3-14.3 0-.8 1.6-2.8 3.5-4.5l3.6-3.1h6.8zm-99.5 43.9-3.5 8-1.5 7.3-1.6 7.4.6 4.5c.4 2.5 1.5 6.7 2.6 9.4l1.8 5 3.7 3.7 3.6 3.7-2.2 5.3c-1.2 3-2.6 6.5-3.2 7.8-.5 1.4-1.2 6.1-1.5 10.5l-.5 8.1 1.6 6.8c2 8.7 6.3 17 12.6 24.6l5 6.1-2.6-1c-2.7-1.1-10.6-7.2-15.4-12-6.9-6.8-13.8-20.1-16.1-31.3l-1.1-4.9.4-23.1.5-23.2 2.5-6.8c3.1-8.3 9-18 13.7-22.7l3.5-3.4.3 1.1c.2.5-1.2 4.6-3.2 9.1m106.3-6.4c3.4 3 11.6 17.1 13.8 23.6l1.9 5.5v54l-3.3 7.6c-4.1 9.5-10.1 18.2-17.2 24.6-4.8 4.4-12 9.3-13.6 9.3-.3 0 1.4-2.2 3.8-4.9l4.5-5 3.6-6.8c8.1-15.4 8.7-30.7 2.1-46.6l-2.5-5.9 4-4.3 4-4.3 1.7-5.9 1.7-5.8V132l-.1-6.5-2.1-6.3c-1.2-3.5-3.3-8.7-4.6-11.5-1.4-2.8-2.5-5.7-2.5-6.4v-1.4l1.3.7c.6.4 2.2 1.6 3.5 2.8m-92.4 61.5c2.8 1.6 9.2 4.2 14.1 5.7l9 2.7 15.5.1 15.5.1 9-2.9c5-1.5 11.3-4.1 14.2-5.6l5.2-2.9 1 1.3c1.7 2.1 3.8 8.6 5.1 16.4l1.2 7.2-1.7 8.1-1.6 8.2-3.4 6.7-3.4 6.7-7 6.5-7.1 6.6-6.5 2.6c-3.6 1.4-9.7 3.2-13.5 3.8l-7 1.2-7-1.2c-3.8-.6-9.9-2.4-13.6-3.9l-6.7-2.6-7-6.6-6.9-6.5-3.4-6.8-3.5-6.9-1.5-7.6-1.6-7.6 1.1-7.2c1-6.6 4.7-18.5 5.9-18.5.2 0 2.8 1.3 5.6 2.9m10.9-78.1c-1.3.4-3.9 2.2-5.9 4.1l-3.6 3.5-1.9 4.4c-2.4 5.6-2.4 8.3.1 13.2l2 4 4.1 2.1 4.2 2.1 5.3-.4 5.4-.3v1.1c0 .6-.7 1.7-1.5 2.4l-1.5 1.2.6.9c1 1.7 2.4.9 5.3-3.1l2.9-4.1 1.8-5.4 1.7-5.5-.6-5.7-.6-5.7-1.9-2.5c-1-1.4-2.9-3.3-4.3-4.3l-2.4-1.9-3.5-.4c-1.9-.2-4.5-.1-5.7.3m9.9 4.7 3.7 2.5 1 3.8c1.4 4.8 1.3 7-.3 10.7l-1.3 3-.7-2.8-.6-2.7-2 1-2 1.1-2.1-1.2-2.1-1.1.7-3.4c.3-1.9.4-3.4.2-3.4s-1.8.5-3.6 1.1l-3.2 1.1-1.4 2.9c-1.8 3.3-1.9 6.3-.5 9l1.1 1.9h-1c-.5 0-1.9-1.2-3-2.6l-2.1-2.7v-7.8l1.9-3.7c2.3-4.5 5-7 8.7-8.2 4.3-1.3 4.6-1.2 8.6 1.5m36.2-4.1-3.1 1.4-2.7 3.5-2.7 3.6-.6 5.4-.6 5.4 1.8 5.4c1 3 3.1 7.3 4.7 9.6l2.9 4.3h1.4c1.9 0 1.8-1 0-3.4-2.3-3-1.9-3.3 4.3-2.9l5.7.4 3.5-1.9 3.5-1.8 2.3-4.4c2.8-5.6 2.8-7.9-.3-14.5l-2.6-5.3-3.5-2.7-3.5-2.7-3.7-.4-3.7-.4zm8.9 3c4.3 1.8 7.2 5.2 9 10.5l1.5 4.5-.9 3c-.5 1.7-1.8 3.9-2.9 5l-2 2.1.6-4.8.7-4.8-2.5 1-2.4.9-1.8-1-1.7-1 .3-3.1.3-3.2-2.5.3-2.4.3-2.2 2-2.3 2.1-.9 3.7-.9 3.6-1.3-4.3-1.3-4.2 1.2-4 1.2-4 2.2-2.1c2.1-2 5.2-3.7 7-3.8.4-.1 2.2.5 4 1.3m-36.5 32.7-2.8 2.1v1.9c0 3.2 2.7 7.5 6.7 10.8l3.8 3.1-1.1 1.8-1.1 1.7-3.2.9-3.2.9-3.5-1.6-3.4-1.7-2-3.2c-1.1-1.8-2.2-3.8-2.4-4.3l-.3-1-1.2 1.1-1.2 1.1 1.6 3.4 1.7 3.5 3.3 2.2c1.8 1.3 4.8 2.5 6.7 2.8l3.4.6 3.8-1.6 3.8-1.6 2.8 1.5 2.9 1.5h6.7l4.1-2.6 4.1-2.7 1.6-3.4c1.9-4.1 2-5.3.3-5.3h-1.3l-1.7 3.5-1.7 3.5-3.2 2-3.3 2h-5.1l-2.2-1.6c-1.2-.8-2.2-2.2-2.2-3V140l2.3-1.1 2.4-1.1 2.6-4.1 2.7-4.1v-4.3l-2.1-1.9-2.1-1.9-7.1-.3-7.2-.3zm-.3 32.9-.5.8 2.9 2.1 2.9 2.1h7.7l3.3-2c1.7-1.1 3.2-2.4 3.2-3 0-1.2-2.7-1.3-3.4-.1-.3.5-2.1 1.2-4 1.5l-3.4.7-4.1-1.5-4.1-1.4zm-14.1 32.5c-.4.9-.4 5.1-.2 9.4l.5 7.8 3.9 5.8 3.9 5.8 4.9 2.5 4.8 2.5h5.8l5.9-.1 4.7-2.3 4.6-2.4 2.7-3.2c1.5-1.8 3.5-5.5 4.4-8.1l1.8-4.9-.3-6.9-.3-6.9-3.5.3c-1.9.2-10.5.4-19 .5l-15.5.2-4.2-.8-4.3-.9zm23.6 4c3.6 0 9.5-.3 13.2-.8l6.6-.7.7 3.9.6 3.9-1.5 5c-.8 2.8-2.2 6.2-3.1 7.6l-1.7 2.5-4.5 2.6-4.6 2.5h-12.3l-2.4-1.7c-4.1-2.7-8.1-6.6-9.6-9.4l-1.3-2.7-.7-7.2-.6-7.1 7.3.8c4.1.4 10.3.8 13.9.8m12 8.1c-.6 1.4-1 2.9-1 3.3 0 1.6-4.9 5.2-8.4 6.2l-3.6 1v1c0 .5.7 1.2 1.5 1.5l1.5.6 4.4-2.2 4.5-2.1 2.1-3.3 2-3.3V198h-1c-.6 0-1.5 1.2-2 2.6"/><path fill="#363329" d="M111.1 55.4c.2.2 2.2.6 4.4.9l4 .6-1.5-.9c-1.4-.9-7.9-1.5-6.9-.6m74.7.3c.6.2 1.8.2 2.5 0l1.2-.5h-5zm5 1c.7.3 1.6.2 1.9-.1.4-.3-.2-.6-1.3-.5l-1.9.1zm-86.9 2-1.4 1.8 1.8-1.4c.9-.7 1.7-1.5 1.7-1.7 0-.8-.8-.3-2.1 1.3m4.7.2-.6.9 2.5 1.6c1.3.9 2.8 1.6 3.2 1.6s-.5-.9-2.1-1.9l-2.9-1.9 1.9-.5 1.9-.5-1.7-.1c-.9 0-1.9.3-2.2.8m6.4-.5c0 .2 1.1.6 2.5.8l2.4.5-.5-.8c-.5-.9-4.4-1.3-4.4-.5m8.5.2c.6.5 2.6 2.3 4.5 3.9l3.5 3-2.5-2.8c-1.4-1.6-3.4-3.3-4.5-3.9l-2-1zm52 .4-.6 1 1.5-.6c1.8-.7 2.1-1.4.7-1.4-.6 0-1.3.4-1.6 1m13.8-.3 1.7.5-.6 1-.7 1.1 1.2-.7 1.1-.7-.5-1c-.4-.5-1.4-.8-2.3-.8l-1.7.1zm-11.5 1.9c-3.8 2-3.6 2.8.2.9 1.7-.9 3-1.8 3-2 0-.7-.1-.6-3.2 1.1m-56.7-.3c.2.1 1.3.9 2.4 1.7l2 1.5-1.4-1.8c-.7-.9-1.8-1.7-2.4-1.7s-.8.1-.6.3m49.8 2.4-2.4 2.8 2.8-2.4c2.5-2.3 3.2-3.1 2.4-3.1-.2 0-1.4 1.2-2.8 2.7m-24.1-1c1.7.2 4.7.2 6.5 0l3.2-.4h-13zm-42.1 2-.5.8h7.6l-.5-.8c-.2-.4-1.7-.7-3.3-.7s-3.1.3-3.3.7m10.3-.3c0 .2.8 1 1.8 1.7l1.7 1.4-1.4-1.8c-1.3-1.6-2.1-2.1-2.1-1.3m11 .5c0 .6.4 1.3 1 1.6l1 .6-.6-1.5c-.7-1.8-1.4-2.1-1.4-.7m36.8-.2c.7.3 1.6.2 1.9-.1.4-.3-.2-.6-1.3-.5l-1.9.1zm22.9 2.5-3.3 3.3 2.8-2.4 2.7-2.4 3.8-.7 3.8-.8-3.3-.1-3.2-.1zm13.4-2.2c0 .8.4 2.2.9 3l1 1.5-.1-1c0-.6-.4-1.9-.9-3l-.9-2zm-66.3.7c.7.3 1.6.2 1.9-.1.4-.3-.2-.6-1.3-.5l-1.9.1zm10 0c1.2.2 3 .2 4 0l1.7-.5-4 .1h-4zm12 0c.6.2 1.8.2 2.5 0l1.2-.5h-5zm26.8 1.8c-.9 1.4-1.5 2.5-1.3 2.5s1.3-1.1 2.5-2.5 1.8-2.5 1.3-2.5-1.6 1.1-2.5 2.5m15-1.2c.3 1 .9 1.5 1.2 1.2s0-1.1-.7-1.8l-1.2-1.2zM115 67.5c1.3 1.4 2.6 2.5 2.8 2.5.3 0-.5-1.1-1.8-2.5s-2.6-2.5-2.8-2.5c-.3 0 .5 1.1 1.8 2.5m55.6-.8-.7 1.8 1.2-1.2c.7-.7 1-1.5.7-1.8s-.9.2-1.2 1.2m-6.6-.3c0 .2.7.7 1.6 1l1.5.6-.6-1c-.6-1-2.5-1.4-2.5-.6m34.3 6.1v4l.4-2.3c.2-1.2.2-3 0-4l-.5-1.7zm-97.1 0v3l.5-1.8c.2-.9.2-2.3 0-3l-.5-1.2zm18.8-2c0 .5.5 1.7 1 2.5l1 1.5v-1c0-.6-.5-1.7-1-2.5l-1-1.5zm-1.9 1.6c-.1.8-1.2 2.6-2.5 3.8s-3.8 4.3-5.6 6.9l-3.4 4.7 2.1-1.8 2.1-1.8.3 1 .4 1 4.9-5.7 4.8-5.7-4.6 4.7c-2.6 2.7-4.9 4.8-5.2 4.8-1.2 0 0-2.2 3.7-6.4l4.1-4.6-.5-1.2-.5-1.3zm59.9.8c0 .6.4 1.3 1 1.6l1 .6-.6-1.5c-.7-1.8-1.4-2.1-1.4-.7m4 1.4c0 .2 1.5 1.6 3.3 3.3l3.2 2.9-2.9-3.3c-2.8-3-3.6-3.7-3.6-2.9M99.2 77v2.5l.5-1.3c.2-.6.2-1.8 0-2.5l-.5-1.2zm83.8 2.5c1.9 1.9 3.6 3.5 3.8 3.5.8 0-5.3-6.9-6.2-6.9-.6-.1.5 1.5 2.4 3.4m-80.9-.9.1 1.9.5-1.3c.3-.7.2-1.6-.1-1.9-.3-.4-.6.2-.5 1.3m98 0 .1 1.9.5-1.3c.3-.7.2-1.6-.1-1.9-.3-.4-.6.2-.5 1.3m-3.4 1.3-.6 2.4 1.1-1.1c.5-.5.8-1.6.6-2.3l-.4-1.3zm-7.1 3.6c.4.8 1.1 1.5 1.6 1.5h1l-1.2-1.5c-.7-.8-1.4-1.5-1.6-1.5s-.1.7.2 1.5m6.7 2.7c-1.5 2-2.5 3.8-2 3.8.3 0 1.2-1.1 2.1-2.5 1.7-2.6 1.6-3.5-.1-1.3m-71 .5c.9.2 2.3.2 3 0l1.2-.5h-6zm47 0c.9.2 2.5.2 3.5 0l1.7-.5h-7zM119.5 88l-.6 1 1.5-.6c1.8-.7 2.1-1.4.7-1.4-.6 0-1.3.4-1.6 1m12-.4c.6.5 2.6 2.3 4.5 3.9l3.5 3-2.5-2.8c-1.4-1.6-3.4-3.3-4.5-3.9l-2-1zm46.6-.3c.2.1 1.3.9 2.4 1.7l2 1.5-1.4-1.8c-.7-.9-1.8-1.7-2.4-1.7s-.8.1-.6.3m-73.5 2.2.6 1.6-1.8 2.2-1.9 2.2 2.3-1.9c2.3-2 2.8-4.1 1.2-5.1l-1-.6zm59.3 1.2-2.4 2.8 2.8-2.4c2.5-2.3 3.2-3.1 2.4-3.1-.2 0-1.4 1.2-2.8 2.7m-55.4-.6c-.4.6-.5 1.2-.2 1.5.2.3.7-.2 1-1.1.7-1.7.1-2-.8-.4m15.3-.4c.7.3 1.6.2 1.9-.1.4-.3-.2-.6-1.3-.5l-1.9.1zm-5.9 3-2.4 2.8 3-2.5c1.7-1.4 3.2-2.6 3.4-2.8.2-.1 0-.2-.6-.2-.5 0-2 1.2-3.4 2.7m49-1-1.4 1.8 1.8-1.4c1.6-1.3 2.1-2.1 1.3-2.1-.2 0-1 .8-1.7 1.7m16.1-1.3c0 .2.8 1 1.8 1.7l1.7 1.4-1.4-1.8c-1.3-1.6-2.1-2.1-2.1-1.3m-1.5 2.6c1 1.1 2 2 2.3 2s-.3-.9-1.3-2-2-2-2.3-2 .3.9 1.3 2m10.6 0c1.4 3.1 1.9 3.6 1.9 2.4 0-.6-.7-1.9-1.6-3l-1.5-1.9zm1.9-1.7c0 .3 2.1 2.2 4.7 4.3s4.4 3.3 4 2.7c-.9-1.4-8.7-7.7-8.7-7m-58.9 2.4c.7 1.2 1.5 2 1.8 1.7.3-.2-.3-1.2-1.3-2.2l-1.8-1.7zm-28.6.4c-.4.6-.5 1.2-.2 1.5.2.3.7-.2 1-1.1.7-1.7.1-2-.8-.4m53.8 1.4c-.3.9-.3 1.8-.1 2.1.3.3.8-.4 1.1-1.6.6-2.3-.1-2.7-1-.5m3.2-.4c-.4.6-.5 1.2-.2 1.5.2.3.7-.2 1-1.1.7-1.7.1-2-.8-.4m-64 .7c-.5.4-2.3 2.3-4 4.2l-3 3.5 4.3-4c3.8-3.5 4.7-4.5 4-4.5-.2 0-.7.4-1.3.8m15 1.3c-.4.6-.5 1.2-.2 1.5.2.3.7-.2 1-1.1.7-1.7.1-2-.8-.4m70.5.4c0 .5.5 1.7 1 2.5l1 1.5v-1c0-.6-.5-1.7-1-2.5l-1-1.5zm-59.6 3.4v2l.8-.5c1-.7 1-3.4 0-3.4-.4 0-.8.9-.8 1.9m33.9 3.1v5.5l.4-2.8c.2-1.5.2-3.9 0-5.5l-.4-2.7zm14.5-4.4.9.5-.5 2.4-.4 2.5 1.2 1.5c.7.8 1.8 1.5 2.4 1.5l1.1-.1-1.8-1-1.8-1.1.3-3.1.3-3-1.3-.3c-.7-.1-.9 0-.4.2m24.8.1c-.3.3-.6 1.1-.6 1.7v1.1l.9-1.3.8-1.4 3.9 3.3 3.9 3.3-2.5-2.8c-1.4-1.5-3.2-3.2-4.1-3.7l-1.6-.8zm-94.9 1c-.4.3-.7 1.3-.7 2.2l.1 1.6 1-1.8c1.1-1.9.8-3.3-.4-2m100.3-.4c0 .2 1.5 1.6 3.3 3.3l3.2 2.9-2.9-3.3c-2.8-3-3.6-3.7-3.6-2.9m-94.7 5.2v4l.4-2.3c.2-1.2.2-3 0-4l-.5-1.7zm3 0v4l.4-2.3c.2-1.2.2-3 0-4l-.5-1.7zm74.8-1.9.1 1.9.5-1.3c.3-.7.2-1.6-.1-1.9-.3-.4-.6.2-.5 1.3m3.1 1.4v3.5l.5-1.8c.2-.9.2-2.5 0-3.5l-.5-1.7zm-23.7-.9c-.4.6-.5 1.2-.2 1.5.2.3.7-.2 1-1.1.7-1.7.1-2-.8-.4m29.5-.6c0 .5.5 1.7 1 2.5l1 1.5v-1c0-.6-.5-1.7-1-2.5l-1-1.5zm-102 1.6v1l1-.6c.6-.3 1-.8 1-1.1 0-.2-.4-.4-1-.4-.5 0-1 .5-1 1.1m105.6.2c.3 1 .9 1.5 1.2 1.2s0-1.1-.7-1.8l-1.2-1.2zm-101.4 2.9-1.1 3.3 1.4-1.9c1.3-1.7 2.1-4.6 1.2-4.6-.1 0-.8 1.5-1.5 3.2m42-.7v3l.5-1.8c.2-.9.2-2.3 0-3l-.5-1.2zm-23.2 1.1c0 1.6.5 3.6 1 4.4l.9 1.5-.6-4c-.7-4.9-1.3-5.8-1.3-1.9m9.7-1.5c.7.7 1.5 1 1.8.7s-.2-.9-1.2-1.2l-1.8-.7zm5.3-.1-1.5 1h1.2c.6 0 1.5-.5 1.8-1 .8-1.2.4-1.2-1.5 0m4.6 1.5-.8 3-.8-2-.9-2v1.7c-.1.9.3 1.9.8 2.3l1 .6 1.1-2.1c.6-1.2 1-2.6.7-3.3l-.4-1.2zm25.5-1.5c0 .8.4 2.2.9 3l1 1.5-.1-1c0-.6-.4-1.9-.9-3l-.9-2zm25 .7-.1 2.2-2.6 2.8-2.5 2.8.6-3.5.5-3.5-1 2.4c-.6 1.4-.8 3.1-.6 3.8l.6 1.3 1.9-1.2c2.4-1.4 4.5-6.1 3.8-8l-.5-1.3zm-98.8.5c-1.5 1.8-3.5 5.8-2.9 5.8.2 0 1.3-1.6 2.5-3.5 2-3.5 2.2-4.6.4-2.3m2.7.8c-.6 1.1-.8 2-.6 2 .3 0 1-.9 1.6-2s.8-2 .6-2c-.3 0-1 .9-1.6 2m74.2 0v2.5l.5-1.3c.2-.6.2-1.8 0-2.5l-.5-1.2zm44.8-1.6c0 .2.8 1 1.8 1.7l1.7 1.4-1.4-1.8c-1.3-1.6-2.1-2.1-2.1-1.3m-9 1.2c0 .6.7 1.9 1.6 3l1.5 1.9-1.2-2.5c-1.4-3.1-1.9-3.6-1.9-2.4m-101.8 3.9c-1.7 3.7-1.4 4.5.4 1.2.9-1.6 1.4-3.1 1.1-3.3-.2-.2-.9.7-1.5 2.1m99.8-1.6c0 .6.4 1.3 1 1.6l1 .6-.6-1.5c-.7-1.8-1.4-2.1-1.4-.7m11 .9c.6 1.3 1.4 2.1 1.8 1.8.3-.4-.2-1.4-1.2-2.4l-1.8-1.7zm-98 2.1c.5 1.1 1.5 2.3 2.1 2.7l1.1.6-1.7-2.6c-2-3-3-3.5-1.5-.7m2-1.5c0 .2.8 1 1.8 1.7l1.7 1.4-1.4-1.8c-1.3-1.6-2.1-2.1-2.1-1.3m101.5 3.6c.9 1.6 1.8 3 2.1 3 .2 0-.2-1.4-1.1-3-.9-1.7-1.8-3-2.1-3-.2 0 .2 1.3 1.1 3m-78.8 1.5c-.9 1.9-1.5 3.5-1.2 3.5.7 0 3.7-6.1 3.3-6.6-.3-.2-1.2 1.2-2.1 3.1m49.2-1.8-1.4 1.8 1.8-1.4c.9-.7 1.7-1.5 1.7-1.7 0-.8-.8-.3-2.1 1.3M83 117.1c-.7 1.1-1 2.3-.7 2.5.2.2.9-.7 1.5-2.1 1.4-3 .7-3.3-.8-.4m119-.6c0 .5.5 1.7 1 2.5l1 1.5v-1c0-.6-.5-1.7-1-2.5l-1-1.5zm-116.5 1.6c-.4.6-.5 1.2-.2 1.5.2.3.7-.2 1-1.1.7-1.7.1-2-.8-.4m96.5-.1-1.5 1h1.2c.6 0 1.5-.5 1.8-1 .8-1.2.4-1.2-1.5 0m-53 1-2.5.8 2.2.1c1.2.1 2.5-.4 2.8-.9.3-.6.5-1 .3-.9s-1.4.5-2.8.9m40.8.2c.5.5 1.6.8 2.3.6l1.3-.4-2.3-.7-2.4-.6zm-49 .5c.7.3 1.6.2 1.9-.1.4-.3-.2-.6-1.3-.5l-1.9.1zm-27.7 1.9.1 1.9.5-1.3c.3-.7.2-1.6-.1-1.9-.3-.4-.6.2-.5 1.3m-9.8.9c-.3.9-.3 1.8-.1 2.1.3.3.8-.4 1.1-1.6.6-2.3-.1-2.7-1-.5m59.3-.7-.5.8 3-.4c1.6-.2 2.9-.6 2.9-.8 0-.8-4.9-.4-5.4.4m-47.5 1.8.1 1.9.5-1.3c.3-.7.2-1.6-.1-1.9-.3-.4-.6.2-.5 1.3m34.8.1-1.4 1.8 1.8-1.4c1.6-1.3 2.1-2.1 1.3-2.1-.2 0-1 .8-1.7 1.7m3 0-1.4 1.8 1.8-1.4c1.6-1.3 2.1-2.1 1.3-2.1-.2 0-1 .8-1.7 1.7m25.9-.1 2.2 1.5.1 2.7.2 2.7.4-2.3.5-2.4-1.8-1.9c-.9-1-2.2-1.9-2.8-1.9s0 .7 1.2 1.6m45.3 0 .1 1.9.5-1.3c.3-.7.2-1.6-.1-1.9-.3-.4-.6.2-.5 1.3m-65.1.8-1.2 1.5.4 2.1.3 2.2 1.1-3.6c1.2-4 1.2-4.2-.6-2.2m27-1c0 .2.8 1 1.8 1.7l1.7 1.4-1.4-1.8c-1.3-1.6-2.1-2.1-2.1-1.3m3.6.9c.3 1 .9 1.5 1.2 1.2s0-1.1-.7-1.8l-1.2-1.2zm37.5 1.3.1 1.9.5-1.3c.3-.7.2-1.6-.1-1.9-.3-.4-.6.2-.5 1.3m12-1.1c0 .5.4 1.9.9 3l.9 2V128c0-.8-.4-2.2-.9-3l-1-1.5zm-127 2.1.1 1.9.5-1.3c.3-.7.2-1.6-.1-1.9-.3-.4-.6.2-.5 1.3m2 1 .1 1.9.5-1.3c.3-.7.2-1.6-.1-1.9-.3-.4-.6.2-.5 1.3m111 0 .1 1.9.5-1.3c.3-.7.2-1.6-.1-1.9-.3-.4-.6.2-.5 1.3m-113.8 5.9v4l.4-2.3c.2-1.2.2-3 0-4l-.5-1.7zm116.9-1.5v2.5l.5-1.3c.2-.6.2-1.8 0-2.5l-.5-1.2zm-68.2.9c.5 1.1 1.5 2.3 2.1 2.7l1.1.6-1.7-2.6c-2-3-3-3.5-1.5-.7m18.5.7-1.7 2.6 1.1-.6c1.1-.7 3.5-4.6 2.8-4.6-.3 0-1.2 1.2-2.2 2.6m60.7 1.4v2.5l.5-1.3c.2-.6.2-1.8 0-2.5l-.5-1.2zm-139 1v2.5l.5-1.3c.2-.6.2-1.8 0-2.5l-.5-1.2zm-3.1.6.1 1.9.5-1.3c.3-.7.2-1.6-.1-1.9-.3-.4-.6.2-.5 1.3m49.4-.6-.6 1 1.1 1.7 1.2 1.8-.7-1.9-.6-1.9 1.3-.9 1.3-.8h-1.2c-.6 0-1.5.4-1.8 1m45.3-.2 1.3.9-.7 1.9-.6 1.9 1.1-1.5c.6-.8 1.1-2.1 1.1-2.8V135h-3.5zm50.4 1.7v3l.5-1.8c.2-.9.2-2.3 0-3l-.5-1.2zm-128.1 1.1.1 1.9.5-1.3c.3-.7.2-1.6-.1-1.9-.3-.4-.6.2-.5 1.3m52.3.6 1.9 1.5-.6 1.7c-.4.9-1.7 2.1-2.9 2.6l-2.3.9h1.6c.9.1 2.4-.8 3.5-2l1.8-2-1-1.6c-.6-.9-1.7-1.9-2.5-2.1l-1.4-.4zm58.7-.5c-.1.6-.4 2-.7 3l-.6 1.8 1.2-1.8c.6-1 .9-2.3.6-3l-.4-1.2zm-113 1.9.1 1.9.5-1.3c.3-.7.2-1.6-.1-1.9-.3-.4-.6.2-.5 1.3m37.9-.9c0 .5 1 1.8 2.3 2.9l2.2 1.9-2-2.5c-1.1-1.4-2.1-2.7-2.2-2.9q-.3-.3-.3.6m21.3.8-.5 1.6 1.7 1.9c1 1.1 2.3 2 2.9 2s0-.7-1.3-1.6l-2.3-1.6.5-1.9c.6-2.3-.1-2.5-1-.4M79.4 159v19.5l.3-9.8c.2-5.3.2-14.1 0-19.5l-.3-9.7zm141 .5c0 11 .2 15.6.3 10.3.2-5.3.2-14.3 0-20l-.3-10.3zM95.1 142.6l.1 1.9.5-1.3c.3-.7.2-1.6-.1-1.9-.3-.4-.6.2-.5 1.3m33.5-.4c.3.7 1.7 2.2 3.2 3.2l2.7 1.9-2.9-3.1c-3.2-3.5-3.8-3.8-3-2m38.3.5-1.4 1.8 1.8-1.4c.9-.7 1.7-1.5 1.7-1.7 0-.8-.8-.3-2.1 1.3m1.5 1.5-2.9 3.1 2.7-1.9c1.5-1 2.9-2.5 3.2-3.2.8-1.8.2-1.5-3 2m-92 14.8v16.5l.3-8.3c.2-4.5.2-11.9 0-16.5l-.3-8.2zm147-1v15.5l.3-7.8c.2-4.2.2-11.2 0-15.5l-.3-7.7zm-87.7-12.9c.7.7 1.5 1 1.8.7s-.2-.9-1.2-1.2l-1.8-.7zm27.3-.1-1.5 1h1.2c.6 0 1.5-.5 1.8-1 .8-1.2.4-1.2-1.5 0m39.6 1.7-.7 1.8 1.2-1.2c.7-.7 1-1.5.7-1.8s-.9.2-1.2 1.2M94 146.6c0 1.2 3.8 7.4 4.6 7.4.3 0-.5-1.7-1.7-3.8-2.8-4.6-2.9-4.7-2.9-3.6m57-.2c0 .2.7.7 1.6 1l1.5.6-.6-1c-.6-1-2.5-1.4-2.5-.6m-11.7 2.3c.9.2 2.5.2 3.5 0l1.7-.5h-7zm17.5 0c1.2.2 3.2.2 4.5 0l2.2-.4h-9zm46.5 1.5c-.6.7-1.4 1.9-1.8 2.7l-.8 1.4 1.1-.7c1.2-.7 3.6-4.6 2.9-4.6-.3 0-.9.6-1.4 1.2M101.5 154c1 1.1 2 2 2.3 2s-.3-.9-1.3-2-2-2-2.3-2 .3.9 1.3 2m93 2.7-5 4.6 3-2.1c2.8-1.9 8.4-7.3 7.4-7.2-.2.1-2.6 2.2-5.4 4.7m-94.5-1.3c0 .2.8 1 1.8 1.7l1.7 1.4-1.4-1.8c-1.3-1.6-2.1-2.1-2.1-1.3m40.6.5-.6.9 1.8 1.3 1.7 1.4-1.2-1.6-1.3-1.6.7-.6c.3-.4.4-.7 0-.7-.3 0-.8.4-1.1.9m-33.1 3.1c1 1.1 2 2 2.3 2s-.3-.9-1.3-2-2-2-2.3-2 .3.9 1.3 2m38.3-1.3c.7.3 1.6.2 1.9-.1.4-.3-.2-.6-1.3-.5l-1.9.1zm7 0c.7.3 1.6.2 1.9-.1.4-.3-.2-.6-1.3-.5l-1.9.1zm-8.3 2.3c.3.5 1.6 1 2.8.9h2.2l-2-.9c-1.1-.5-2.4-.9-2.8-.9l-.8-.1zm7.3.7c.7.3 1.6.2 1.9-.1.4-.3-.2-.6-1.3-.5l-1.9.1zm39.2 1.9-2.5 1.4h1.7c.9 0 2-.5 2.3-1l.7-1.1 1.4 1.2 1.4 1.2-.6-1.7c-.7-1.9-1.1-1.9-4.4 0m-6.4.9-2 1.5h1.1c.6 0 1.6-.7 2.3-1.5 1.6-1.9 1.1-1.9-1.4 0m-81.7 2.1c-.5 1.5-.8 2.9-.5 3.1.2.2.8-1 1.4-2.6 1.3-3.8.5-4.1-.9-.5m8.1-1.2c0 .3.9 1 2 1.6s2 .8 2 .6c0-.3-.9-1-2-1.6s-2-.8-2-.6m-11.4 2.1c-.9 2.6-.7 3.2.5 1.2.6-1 .9-2.1.6-2.3-.2-.3-.7.2-1.1 1.1m79.4-.5-1.5 1h1c.6 0 1.7-.5 2.5-1l1.5-1h-1c-.5 0-1.7.5-2.5 1m20-.5c0 .5.5 1.7 1 2.5l1 1.5v-1c0-.6-.5-1.7-1-2.5l-1-1.5zm-83 1.9c0 .2.9.6 2 .9l2 .5-.6-.9c-.5-.9-3.4-1.3-3.4-.5m55.8 1.3c.7.3 1.6.2 1.9-.1.4-.3-.2-.6-1.3-.5l-1.9.1zm-40.5 1c.9.2 2.3.2 3 0l1.2-.5h-6zm29.7.3-3.5.7 3.5.1c1.9 0 4.9-.4 6.5-.8l3-.8h-3c-1.6.1-4.6.4-6.5.8m-35.2.7c.7.3 1.6.2 1.9-.1.4-.3-.2-.6-1.3-.5l-1.9.1zm13.5 0c.9.2 2.3.2 3 0l1.2-.5h-6zm61.8.9.1 1.9.5-1.3c.3-.7.2-1.6-.1-1.9-.3-.4-.6.2-.5 1.3m-103.5.9c-.3.9-.6 2.4-.5 3.3l.1 1.7.9-2.9c.9-3.2.6-4.8-.5-2.1m32.2-.8c.7.3 1.6.2 1.9-.1.4-.3-.2-.6-1.3-.5l-1.9.1zm4.5 1c.9.2 2.5.2 3.5 0l1.7-.5h-7zm30 0c.9.2 2.3.2 3 0l1.2-.5h-6zm-64.2 1.9.1 1.9.5-1.3c.3-.7.2-1.6-.1-1.9-.3-.4-.6.2-.5 1.3m45.2-.9c3.2.2 8.1.2 11 0l5.2-.3h-22zm53.9 1.3v2.5l.5-1.3c.2-.6.2-1.8 0-2.5l-.5-1.2zm2.9.6.1 1.9.5-1.3c.3-.7.2-1.6-.1-1.9-.3-.4-.6.2-.5 1.3M99.2 180v3.5l.5-1.8c.2-.9.2-2.5 0-3.5l-.5-1.7zm101 .5v3l.5-1.8c.2-.9.2-2.3 0-3l-.5-1.2zm22 0v3l.5-1.8c.2-.9.2-2.3 0-3l-.5-1.2zm-145 .5v2.5l.5-1.3c.2-.6.2-1.8 0-2.5l-.5-1.2zm19.1 5v7.5l.4-3.8c.2-2 .2-5.4 0-7.5l-.4-3.7zm107 1v7.5l.4-3.8c.2-2 .2-5.4 0-7.5l-.4-3.7zm15.9-4v2.5l.5-1.3c.2-.6.2-1.8 0-2.5l-.5-1.2zm-141.1 3c0 .8.6 2.8 1.4 4.5 1.7 3.9 1.8 2.1 0-2.5l-1.3-3.5zm142.5 1.5c-.3.9-.6 2.2-.5 2.8 0 .7.5.1 1-1.2s.8-2.6.5-2.8c-.2-.2-.6.3-1 1.2m-94.1.6c-.4.6-.5 1.2-.2 1.5.2.3.7-.2 1-1.1.7-1.7.1-2-.8-.4m42.3-.4c.7.3 1.6.2 1.9-.1.4-.3-.2-.6-1.3-.5l-1.9.1zm4.2 7.6.5 8.2.3-7.4.3-7.4-.8-.8-.8-.8zm-40.2-6.6c.6.2 1.8.2 2.5 0l1.2-.5h-5zm32 0c.7.3 1.6.2 1.9-.1.4-.3-.2-.6-1.3-.5l-1.9.1zm-20 1c2.8.2 7.6.2 10.5 0l5.2-.3h-21zm-15 1c.6.2 1.8.2 2.5 0l1.2-.5h-5zm37.9 0 2.2.4.4 2.2.4 2.2.2-2.8.1-2.7-2.7.1-2.8.2zm32.5 1.8v3l.5-1.8c.2-.9.2-2.3 0-3l-.5-1.2zm-101 .5v2.5l.5-1.3c.2-.6.2-1.8 0-2.5l-.5-1.2zm27.1 4v6.5l.4-3.3c.2-1.7.2-4.7 0-6.5l-.4-3.2zm9.5-5.3c.6.2 1.8.2 2.5 0l1.2-.5h-5zm27 0c.7.3 1.6.2 1.9-.1.4-.3-.2-.6-1.3-.5l-1.9.1zm53.8.8c-.9 2.6-.7 3.2.5 1.2.6-1 .9-2.1.6-2.3-.2-.3-.7.2-1.1 1.1m-69.8.2c1.7.2 4.7.2 6.5 0l3.2-.4h-13zm55.3 3.9.1 1.9.5-1.3c.3-.7.2-1.6-.1-1.9-.3-.4-.6.2-.5 1.3M100.2 198v2.5l.5-1.3c.2-.6.2-1.8 0-2.5l-.5-1.2zm98.9-.4.1 1.9.5-1.3c.3-.7.2-1.6-.1-1.9-.3-.4-.6.2-.5 1.3m15.5.1-.7 1.8 1.2-1.2c.7-.7 1-1.5.7-1.8s-.9.2-1.2 1.2M82.7 200c.3 1.1.9 2.2 1.3 2.5l.8.5-.5-2c-.3-1.1-.9-2.2-1.3-2.5l-.8-.5zm133.4.7-1.1 2.8 1.5-1.9c.8-1.1 1.5-2.3 1.5-2.8 0-1.5-.7-.8-1.9 1.9m-118-.1.1 1.9.5-1.3c.3-.7.2-1.6-.1-1.9-.3-.4-.6.2-.5 1.3m103 0 .1 1.9.5-1.3c.3-.7.2-1.6-.1-1.9-.3-.4-.6.2-.5 1.3m-71.9 2.4v2.5l.5-1.3c.2-.6.2-1.8 0-2.5l-.5-1.2zm34.9-1.3c-.1.6-.4 2-.7 3l-.6 1.8 1.2-1.8c.6-1 .9-2.3.6-3l-.4-1.2zm5.5 1.9c-.4 1.4-.5 2.8-.3 3.1.3.2.8-.8 1.1-2.3.4-1.4.5-2.8.3-3.1-.3-.2-.8.8-1.1 2.3m-82.6-.9c0 .6.8 1.7 1.8 2.4l1.7 1.4-1.5-2c-.8-1.1-1.6-2.2-1.7-2.4q-.3-.3-.3.6m124.1 1.6-1.3 2.2 1.8-1.7c1-1 1.6-2 1.3-2.2-.3-.3-1.1.5-1.8 1.7M99 203.5c0 .5.5 1.7 1 2.5l1 1.5v-1c0-.6-.5-1.7-1-2.5l-1-1.5zm28.1 2.1.1 1.9.5-1.3c.3-.7.2-1.6-.1-1.9-.3-.4-.6.2-.5 1.3m30.6 1.9c-1.5 1.4-2.4 2.5-1.9 2.5s1.9-1.1 3.2-2.5c3-3.2 2.3-3.2-1.3 0m37.9.2-.7 1.8 1.2-1.2c.7-.7 1-1.5.7-1.8s-.9.2-1.2 1.2m16.3 0-1.4 1.8 1.8-1.4c1.6-1.3 2.1-2.1 1.3-2.1-.2 0-1 .8-1.7 1.7M89 210c1.2 1.6 2.4 3 2.6 3 .3 0-.4-1.4-1.6-3-1.2-1.7-2.4-3-2.6-3-.3 0 .4 1.3 1.6 3m1-2.6c0 .2.8 1 1.8 1.7l1.7 1.4-1.4-1.8c-1.3-1.6-2.1-2.1-2.1-1.3m70.6 1.3-.7 1.8 1.2-1.2c.7-.7 1-1.5.7-1.8s-.9.2-1.2 1.2M103 212c1.1 2.2 2.3 4 2.5 4 .3 0-.4-1.8-1.5-4s-2.3-4-2.5-4c-.3 0 .4 1.8 1.5 4m66.6-1.3-.7 1.8 1.2-1.2c.7-.7 1-1.5.7-1.8s-.9.2-1.2 1.2m-32.8 4c2.4 2.4 4.9 4.3 5.5 4.3s0-.7-1.3-1.7c-1.4-.9-3.9-2.8-5.6-4.2-1.6-1.4-1-.7 1.4 1.6m15-4c.7.3 1.6.2 1.9-.1.4-.3-.2-.6-1.3-.5l-1.9.1zm13.7 1.9-1.7 2.6 1.1-.6c1.1-.7 3.5-4.6 2.8-4.6-.3 0-1.2 1.2-2.2 2.6m27.6.1-1.1 2.8 1.5-1.9c.8-1.1 1.5-2.3 1.5-2.8 0-1.5-.7-.8-1.9 1.9m15.8-1-1.4 1.8 1.8-1.4c1.6-1.3 2.1-2.1 1.3-2.1-.2 0-1 .8-1.7 1.7m-3.4.4c-.4.6-.5 1.2-.2 1.5.2.3.7-.2 1-1.1.7-1.7.1-2-.8-.4m-54.7 1.6c.7.3 1.6.2 1.9-.1.4-.3-.2-.6-1.3-.5l-1.9.1zm-17.3 2.3c1 1.1 2 2 2.3 2s-.3-.9-1.3-2-2-2-2.3-2 .3.9 1.3 2m69.7 2.1c-2.4 2.3-4.2 4.3-4 4.5.3.2 2.4-1.7 4.8-4.1 5.5-5.6 5-5.8-.8-.4M93 215.4c0 .2.8 1 1.8 1.7l1.7 1.4-1.4-1.8c-1.3-1.6-2.1-2.1-2.1-1.3m66.8 1.2c-3.8 2-3.6 2.8.2.9 1.7-.9 3-1.8 3-2 0-.7-.1-.6-3.2 1.1m26.2 5.1-5.5 5.8 5.8-5.5c5.3-5 6.2-6 5.4-6-.1 0-2.7 2.6-5.7 5.7m11.9-2-3.4 3.6 2.7-1.9c2.2-1.6 5.4-5.4 4.5-5.4-.2 0-1.9 1.6-3.8 3.7m-88 2.2 4.1 4.9-1.2.5-1.3.5 2.2-.1 2.1-.1-4.5-5.3c-2.5-2.9-4.8-5.3-5-5.3-.3 0 1.4 2.2 3.6 4.9m4.1.6c3 3 5.7 5.5 5.9 5.5.3 0-1.9-2.5-4.9-5.5s-5.7-5.5-5.9-5.5c-.3 0 1.9 2.5 4.9 5.5m-13.7-3.8c.9 1.4 8.7 7.7 8.7 7 0-.3-2.1-2.2-4.7-4.3s-4.4-3.3-4-2.7m-3.3.7c0 .2.8 1 1.8 1.7l1.7 1.4-1.4-1.8c-1.3-1.6-2.1-2.1-2.1-1.3m42.7.7c.7.7 1.5 1 1.8.7s-.2-.9-1.2-1.2l-1.8-.7zm9.1-.4c1.2.2 3 .2 4 0l1.7-.5-4 .1h-4zm9.7.3-.6 1h1c.5 0 1.3-.5 1.6-1l.6-1h-1c-.5 0-1.3.4-1.6 1m28.7 4-3.3 3.8 1.3.8 1.3.7-.8-.8-.7-.9 3.7-3.8c2-2.1 3.3-3.8 2.8-3.7-.6 0-2.5 1.8-4.3 3.9m-43.4-2.3c.6.2 1.8.2 2.5 0l1.2-.5h-5zm5 1c.7.3 1.6.2 1.9-.1.4-.3-.2-.6-1.3-.5l-1.9.1zm-45.6 1.9c.9 1 3.2 2.8 5 3.8 3.9 2.2 2.9 1.1-2.7-2.9l-4-2.9zm91.3.9c-1.6 1.4-3.4 2.5-3.8 2.5-.5 0-1.5.7-2.3 1.5-.9.8-1.3 1.5-.9 1.5.9 0 9.3-5.9 10-7 .9-1.5.3-1.2-3 1.5m-7 1.5-.6 1 1.5-.6c1.8-.7 2.1-1.4.7-1.4-.6 0-1.3.4-1.6 1m-10.4 2c-1.3 1.1-1.9 2-1.4 2 .6 0 1.8-.9 2.8-2 2.3-2.5 1.7-2.5-1.4 0m-63 2.4c.2.2 1.5.9 2.9 1.5l2.5 1.2-1.9-1.5c-1.6-1.3-4.9-2.4-3.5-1.2M169 233l-1.5 1h1c.6 0 1.7-.5 2.5-1l1.5-1h-1c-.5 0-1.7.5-2.5 1m8.5 1.5-3 1.4h1.5c.8 0 2.6-.6 4-1.4 3.2-1.8 1.5-1.8-2.5 0M124 236c.8.5 2.2.9 3 .9h1.5l-2-.9c-1.1-.5-2.4-.9-3-.9l-1-.1zm37.8-.3c.7.3 1.6.2 1.9-.1.4-.3-.2-.6-1.3-.5l-1.9.1zm-21 1c.6.2 1.8.2 2.5 0l1.2-.5h-5zm16 0c.6.2 1.8.2 2.5 0l1.2-.5h-5zm-19.3 2.3c1.9.8 8.3 1.4 7.4.6-.2-.2-2.4-.6-4.9-.9l-4.5-.6zm25.8-.3c.9.2 2.5.2 3.5 0l1.7-.5h-7zm-7.5 1c1.2.2 3 .2 4 0l1.7-.5-4 .1h-4z"/></svg>